<svg width="335" height="318" viewBox="0 0 335 318" fill="none" xmlns="http://www.w3.org/2000/svg">
<rect x="15" y="141" width="40" height="177" fill="url(#paint0_linear)"/>
<rect x="34" y="106" width="2" height="35" fill="#3E60FF" fill-opacity="0.5"/>

<rect x="70" y="159" width="40" height="159" fill="url(#paint1_linear)"/>
<rect x="89" y="132" width="2" height="27" fill="#A064F4" fill-opacity="0.5"/>

<rect x="125" y="88" width="40" height="230" fill="url(#paint2_linear)" opacity="0.85"/>
<rect x="144" y="57" width="2" height="31" fill="#836DBB" fill-opacity="0.4"/>

<rect x="180" y="22" width="40" height="296" fill="url(#paint0_linear)" opacity="0.65"/>
<rect x="199" y="0" width="2" height="22" fill="#3E60FF" fill-opacity="0.3"/>

<rect x="235" y="70" width="40" height="248" fill="url(#paint2_linear)" opacity="0.7"/>
<rect x="254" y="37" width="2" height="33" fill="#836DBB" fill-opacity="0.4"/>

<rect x="290" y="0" width="40" height="318" fill="url(#paint1_linear)" opacity="0.55"/>
<rect x="309" y="0" width="2" height="0" fill="#A064F4" fill-opacity="0.3"/>

<defs>
<linearGradient id="paint0_linear" x1="35" y1="141" x2="35" y2="318" gradientUnits="userSpaceOnUse">
<stop stop-color="#3E60FF" stop-opacity="0.9"/>
<stop offset="1" stop-color="#0D1243"/>
</linearGradient>
<linearGradient id="paint1_linear" x1="90" y1="159" x2="90" y2="318" gradientUnits="userSpaceOnUse">
<stop stop-color="#A064F4" stop-opacity="0.9"/>
<stop offset="1" stop-color="#1E0542"/>
</linearGradient>
<linearGradient id="paint2_linear" x1="145" y1="88" x2="145" y2="318" gradientUnits="userSpaceOnUse">
<stop stop-color="#836DBB" stop-opacity="0.7"/>
<stop offset="1" stop-color="#836DBB" stop-opacity="0"/>
</linearGradient>
</defs>
</svg>
