<svg width="335" height="360" viewBox="0 0 335 360" fill="none" xmlns="http://www.w3.org/2000/svg">
<rect x="15" y="160" width="40" height="200" fill="url(#paint0_linear)"/>
<rect x="34" y="120" width="2" height="40" fill="#3E60FF" fill-opacity="0.5"/>

<rect x="70" y="180" width="40" height="180" fill="url(#paint1_linear)"/>
<rect x="89" y="150" width="2" height="30" fill="#A064F4" fill-opacity="0.5"/>

<rect x="125" y="100" width="40" height="260" fill="url(#paint2_linear)" opacity="0.85"/>
<rect x="144" y="65" width="2" height="35" fill="#836DBB" fill-opacity="0.4"/>

<rect x="180" y="25" width="40" height="335" fill="url(#paint3_linear)" opacity="0.65"/>
<rect x="199" y="0" width="2" height="25" fill="#E0FE66" fill-opacity="0.3"/>

<rect x="235" y="80" width="40" height="280" fill="url(#paint2_linear)" opacity="0.7"/>
<rect x="254" y="42" width="2" height="38" fill="#836DBB" fill-opacity="0.4"/>

<rect x="290" y="0" width="40" height="360" fill="url(#paint3_linear)" opacity="0.55"/>
<rect x="309" y="0" width="2" height="0" fill="#E0FE66" fill-opacity="0.3"/>

<defs>
<linearGradient id="paint0_linear" x1="35" y1="160" x2="35" y2="360" gradientUnits="userSpaceOnUse">
<stop stop-color="#3E60FF" stop-opacity="0.9"/>
<stop offset="1" stop-color="#0D1243"/>
</linearGradient>
<linearGradient id="paint1_linear" x1="90" y1="180" x2="90" y2="360" gradientUnits="userSpaceOnUse">
<stop stop-color="#A064F4" stop-opacity="0.9"/>
<stop offset="1" stop-color="#1E0542"/>
</linearGradient>
<linearGradient id="paint2_linear" x1="145" y1="100" x2="145" y2="360" gradientUnits="userSpaceOnUse">
<stop stop-color="#836DBB" stop-opacity="0.7"/>
<stop offset="1" stop-color="#836DBB" stop-opacity="0"/>
</linearGradient>
<linearGradient id="paint3_linear" x1="200" y1="25" x2="200" y2="360" gradientUnits="userSpaceOnUse">
<stop stop-color="#E0FE66" stop-opacity="0.6"/>
<stop offset="1" stop-color="#2E272E"/>
</linearGradient>
</defs>
</svg>
