<svg width="335" height="318" viewBox="0 0 335 318" fill="none" xmlns="http://www.w3.org/2000/svg">
<rect x="280" y="125" width="40" height="193" fill="url(#paint3_linear)"/>
<rect x="299" y="93" width="2" height="32" fill="#E0FE66" fill-opacity="0.5"/>

<rect x="225" y="192" width="40" height="126" fill="url(#paint2_linear)" opacity="0.55"/>
<rect x="244" y="169" width="2" height="23" fill="#836DBB" fill-opacity="0.4"/>

<rect x="170" y="134" width="40" height="184" fill="url(#paint3_linear)"/>
<rect x="189" y="104" width="2" height="30" fill="#E0FE66" fill-opacity="0.5"/>

<rect x="115" y="71" width="40" height="247" fill="url(#paint2_linear)" opacity="0.55"/>
<rect x="134" y="36" width="2" height="35" fill="#836DBB" fill-opacity="0.4"/>

<rect x="60" y="83" width="40" height="235" fill="url(#paint3_linear)"/>
<rect x="79" y="58" width="2" height="25" fill="#E0FE66" fill-opacity="0.5"/>

<rect x="5" y="0" width="40" height="318" fill="url(#paint1_linear)"/>
<rect x="24" y="0" width="2" height="0" fill="#A064F4" fill-opacity="0.5"/>

<defs>
<linearGradient id="paint1_linear" x1="25" y1="0" x2="25" y2="318" gradientUnits="userSpaceOnUse">
<stop stop-color="#A064F4" stop-opacity="0.9"/>
<stop offset="1" stop-color="#1E0542"/>
</linearGradient>
<linearGradient id="paint2_linear" x1="135" y1="71" x2="135" y2="318" gradientUnits="userSpaceOnUse">
<stop stop-color="#836DBB" stop-opacity="0.6"/>
<stop offset="1" stop-color="#836DBB" stop-opacity="0"/>
</linearGradient>
<linearGradient id="paint3_linear" x1="190" y1="134" x2="190" y2="318" gradientUnits="userSpaceOnUse">
<stop stop-color="#E0FE66" stop-opacity="0.8"/>
<stop offset="1" stop-color="#2E272E"/>
</linearGradient>
</defs>
</svg>
