<svg width="335" height="380" viewBox="0 0 335 380" fill="none" xmlns="http://www.w3.org/2000/svg">
<rect x="280" y="150" width="40" height="230" fill="url(#paint3_linear)"/>
<rect x="299" y="112" width="2" height="38" fill="#E0FE66" fill-opacity="0.5"/>

<rect x="225" y="230" width="40" height="150" fill="url(#paint2_linear)" opacity="0.55"/>
<rect x="244" y="202" width="2" height="28" fill="#836DBB" fill-opacity="0.4"/>

<rect x="170" y="160" width="40" height="220" fill="url(#paint3_linear)"/>
<rect x="189" y="125" width="2" height="35" fill="#E0FE66" fill-opacity="0.5"/>

<rect x="115" y="85" width="40" height="295" fill="url(#paint2_linear)" opacity="0.55"/>
<rect x="134" y="43" width="2" height="42" fill="#836DBB" fill-opacity="0.4"/>

<rect x="60" y="100" width="40" height="280" fill="url(#paint3_linear)"/>
<rect x="79" y="70" width="2" height="30" fill="#E0FE66" fill-opacity="0.5"/>

<rect x="5" y="0" width="40" height="380" fill="url(#paint1_linear)"/>
<rect x="24" y="0" width="2" height="0" fill="#A064F4" fill-opacity="0.5"/>

<defs>
<linearGradient id="paint1_linear" x1="25" y1="0" x2="25" y2="380" gradientUnits="userSpaceOnUse">
<stop stop-color="#A064F4" stop-opacity="0.9"/>
<stop offset="1" stop-color="#1E0542"/>
</linearGradient>
<linearGradient id="paint2_linear" x1="135" y1="85" x2="135" y2="380" gradientUnits="userSpaceOnUse">
<stop stop-color="#836DBB" stop-opacity="0.6"/>
<stop offset="1" stop-color="#836DBB" stop-opacity="0"/>
</linearGradient>
<linearGradient id="paint3_linear" x1="190" y1="160" x2="190" y2="380" gradientUnits="userSpaceOnUse">
<stop stop-color="#E0FE66" stop-opacity="0.8"/>
<stop offset="1" stop-color="#2E272E"/>
</linearGradient>
</defs>
</svg>
