<svg width="203" height="40" viewBox="0 0 203 40" fill="none" xmlns="http://www.w3.org/2000/svg">
<g clip-path="url(#clip0_5003_206)">
<path d="M40.3535 25.1002V22.2205H46.1416C47.159 22.2205 47.9461 21.9038 48.5029 21.2703C49.0596 20.6367 49.338 19.9072 49.338 19.0817C49.338 18.525 49.2132 18.0067 48.9636 17.5267C48.714 17.0468 48.3493 16.6629 47.8694 16.3749C47.3894 16.0869 46.8135 15.9429 46.1416 15.9429H40.3535V13.0633H45.652C46.5159 13.0633 47.207 12.8425 47.7254 12.401C48.2437 11.9595 48.5029 11.3067 48.5029 10.4429C48.5029 9.57897 48.2437 8.92625 47.7254 8.48471C47.207 8.04316 46.5159 7.82239 45.652 7.82239H40.3535V4.94276H45.7384C47.1015 4.94276 48.2341 5.19233 49.1364 5.69147C50.0387 6.1906 50.7106 6.83372 51.1521 7.62082C51.5937 8.40792 51.8144 9.25261 51.8144 10.1549C51.8144 11.2108 51.5169 12.1418 50.9218 12.9481C50.3458 13.7544 49.4915 14.4071 48.3589 14.9063L48.6181 13.8696C49.8851 14.3879 50.8738 15.1175 51.5841 16.0581C52.2944 16.9988 52.6495 18.1027 52.6495 19.3697C52.6495 20.4064 52.3904 21.3566 51.872 22.2205C51.3729 23.0844 50.6242 23.7851 49.6259 24.3227C48.6469 24.841 47.4374 25.1002 45.9976 25.1002H40.3535ZM38.0786 25.1002V4.94276H41.3902V25.1002H38.0786Z" fill="white"/>
<path d="M61.2329 25.3881C60.0618 25.3881 59.0155 25.129 58.0941 24.6106C57.1918 24.0923 56.4815 23.382 55.9631 22.4797C55.464 21.5582 55.2144 20.5024 55.2144 19.3121V11.2779H58.382V19.1681C58.382 19.84 58.4876 20.416 58.6988 20.8959C58.9292 21.3566 59.2555 21.7118 59.6779 21.9614C60.1194 22.2109 60.6377 22.3357 61.2329 22.3357C62.1543 22.3357 62.855 22.067 63.335 21.5294C63.8341 20.9727 64.0837 20.1856 64.0837 19.1681V11.2779H67.2513V19.3121C67.2513 20.5216 66.9921 21.587 66.4738 22.5085C65.9746 23.4108 65.2739 24.1211 64.3717 24.6394C63.4694 25.1386 62.4231 25.3881 61.2329 25.3881Z" fill="white"/>
<path d="M70.465 25.1002V11.2779H73.6326V25.1002H70.465ZM72.0488 8.74387C71.5113 8.74387 71.0601 8.5615 70.6954 8.19674C70.3498 7.83199 70.177 7.38085 70.177 6.84332C70.177 6.30579 70.3498 5.85464 70.6954 5.48989C71.0601 5.12514 71.5113 4.94276 72.0488 4.94276C72.6055 4.94276 73.0567 5.12514 73.4022 5.48989C73.7478 5.85464 73.9205 6.30579 73.9205 6.84332C73.9205 7.38085 73.7478 7.83199 73.4022 8.19674C73.0567 8.5615 72.6055 8.74387 72.0488 8.74387Z" fill="white"/>
<path d="M77.1853 25.1002V4.36684H80.3529V25.1002H77.1853Z" fill="white"/>
<path d="M89.6663 25.3881C88.4184 25.3881 87.2858 25.0714 86.2683 24.4379C85.27 23.8043 84.4733 22.95 83.8782 21.875C83.3023 20.7807 83.0143 19.5617 83.0143 18.2179C83.0143 16.8548 83.3023 15.6358 83.8782 14.5607C84.4733 13.4665 85.27 12.6026 86.2683 11.9691C87.2858 11.3163 88.4184 10.99 89.6663 10.99C90.7221 10.99 91.6532 11.2204 92.4595 11.6811C93.285 12.1226 93.9377 12.737 94.4177 13.5241C94.8976 14.3112 95.1376 15.2038 95.1376 16.2021V20.176C95.1376 21.1743 94.8976 22.067 94.4177 22.8541C93.9569 23.6412 93.3138 24.2651 92.4883 24.7258C91.6628 25.1674 90.7221 25.3881 89.6663 25.3881ZM90.1846 22.3933C90.9717 22.3933 91.6532 22.2205 92.2291 21.875C92.8243 21.5102 93.285 21.0111 93.6114 20.3776C93.9377 19.7441 94.1009 19.0146 94.1009 18.1891C94.1009 17.3636 93.9377 16.6341 93.6114 16.0005C93.285 15.367 92.8243 14.8775 92.2291 14.5319C91.6532 14.1672 90.9717 13.9848 90.1846 13.9848C89.4167 13.9848 88.7352 14.1672 88.1401 14.5319C87.5641 14.8775 87.1034 15.367 86.7578 16.0005C86.4315 16.6341 86.2683 17.3636 86.2683 18.1891C86.2683 19.0146 86.4315 19.7441 86.7578 20.3776C87.1034 21.0111 87.5641 21.5102 88.1401 21.875C88.7352 22.2205 89.4167 22.3933 90.1846 22.3933ZM97.0669 25.1002H93.8993V21.3854L94.4465 18.0163L93.8993 14.6759V4.36684H97.0669V25.1002Z" fill="white"/>
<path d="M101.014 25.1002V4.94276H103.318L111.698 18.7362H110.2L118.58 4.94276H120.884V25.1002H117.572V10.7596L118.321 10.9612L112.101 21.1839H109.797L103.577 10.9612L104.326 10.7596V25.1002H101.014Z" fill="white"/>
<path d="M130.611 25.3881C129.363 25.3881 128.23 25.0714 127.213 24.4379C126.215 23.8043 125.418 22.95 124.823 21.875C124.247 20.7807 123.959 19.5617 123.959 18.2179C123.959 16.8548 124.247 15.6358 124.823 14.5607C125.418 13.4665 126.215 12.6026 127.213 11.9691C128.23 11.3163 129.363 10.99 130.611 10.99C131.667 10.99 132.598 11.2204 133.404 11.6811C134.23 12.1226 134.882 12.737 135.362 13.5241C135.842 14.3112 136.082 15.2038 136.082 16.2021V20.176C136.082 21.1743 135.842 22.067 135.362 22.8541C134.902 23.6412 134.259 24.2651 133.433 24.7258C132.608 25.1674 131.667 25.3881 130.611 25.3881ZM131.129 22.3933C132.3 22.3933 133.241 21.9998 133.951 21.2127C134.681 20.4256 135.046 19.4177 135.046 18.1891C135.046 17.3636 134.882 16.6341 134.556 16.0005C134.23 15.367 133.769 14.8775 133.174 14.5319C132.598 14.1672 131.916 13.9848 131.129 13.9848C130.361 13.9848 129.68 14.1672 129.085 14.5319C128.509 14.8775 128.048 15.367 127.703 16.0005C127.376 16.6341 127.213 17.3636 127.213 18.1891C127.213 19.0146 127.376 19.7441 127.703 20.3776C128.048 21.0111 128.509 21.5102 129.085 21.875C129.68 22.2205 130.361 22.3933 131.129 22.3933ZM134.844 25.1002V21.3854L135.391 18.0163L134.844 14.6759V11.2779H138.012V25.1002H134.844Z" fill="white"/>
<path d="M141.527 25.1002V11.2779H144.695V25.1002H141.527ZM144.695 17.4116L143.6 16.8644C143.6 15.1175 143.984 13.7064 144.752 12.6314C145.539 11.5371 146.72 10.99 148.294 10.99C148.985 10.99 149.609 11.1148 150.166 11.3643C150.723 11.6139 151.241 12.0171 151.721 12.5738L149.648 14.7047C149.398 14.4359 149.12 14.244 148.812 14.1288C148.505 14.0136 148.15 13.956 147.747 13.956C146.864 13.956 146.134 14.2344 145.559 14.7911C144.983 15.3478 144.695 16.2213 144.695 17.4116Z" fill="white"/>
<path d="M162.037 25.1002L156.191 18.0451L162.008 11.2779H165.78L159.099 18.8802L159.243 17.066L166.068 25.1002H162.037ZM153.254 25.1002V4.36684H156.421V25.1002H153.254Z" fill="white"/>
<path d="M173.68 25.3881C172.297 25.3881 171.05 25.081 169.936 24.4666C168.842 23.8331 167.968 22.9692 167.316 21.875C166.682 20.7807 166.365 19.5521 166.365 18.1891C166.365 16.826 166.682 15.607 167.316 14.5319C167.949 13.4377 168.803 12.5738 169.879 11.9403C170.973 11.3067 172.182 10.99 173.507 10.99C174.793 10.99 175.926 11.2875 176.905 11.8827C177.903 12.4778 178.681 13.2937 179.237 14.3304C179.813 15.367 180.101 16.5477 180.101 17.8723C180.101 18.1027 180.082 18.3426 180.044 18.5922C180.024 18.8226 179.986 19.0817 179.928 19.3697H168.583V16.778H178.287L177.106 17.8147C177.068 16.97 176.905 16.2597 176.617 15.6838C176.329 15.1079 175.916 14.6663 175.379 14.3591C174.86 14.052 174.217 13.8984 173.449 13.8984C172.643 13.8984 171.942 14.0712 171.347 14.4167C170.752 14.7623 170.291 15.2518 169.965 15.8854C169.639 16.4997 169.475 17.2388 169.475 18.1027C169.475 18.9666 169.648 19.7249 169.994 20.3776C170.339 21.0303 170.829 21.539 171.462 21.9038C172.096 22.2493 172.825 22.4221 173.651 22.4221C174.361 22.4221 175.014 22.2973 175.609 22.0478C176.223 21.7982 176.742 21.4334 177.164 20.9535L179.18 22.998C178.508 23.7851 177.692 24.3803 176.732 24.7834C175.772 25.1866 174.755 25.3881 173.68 25.3881Z" fill="white"/>
<path d="M184.377 25.1002V5.51869H187.545V25.1002H184.377ZM181.065 14.1576V11.2779H190.856V14.1576H181.065Z" fill="white"/>
<path d="M197.398 25.3881C196.63 25.3881 195.891 25.2921 195.18 25.1002C194.47 24.889 193.817 24.601 193.222 24.2363C192.627 23.8523 192.109 23.3916 191.667 22.8541L193.683 20.8383C194.163 21.395 194.71 21.8174 195.324 22.1054C195.958 22.3741 196.668 22.5085 197.455 22.5085C198.166 22.5085 198.703 22.4029 199.068 22.1917C199.433 21.9806 199.615 21.6734 199.615 21.2703C199.615 20.8479 199.442 20.5216 199.097 20.2912C198.751 20.0608 198.3 19.8688 197.743 19.7153C197.206 19.5425 196.63 19.3697 196.015 19.1969C195.42 19.0241 194.844 18.7938 194.288 18.5058C193.75 18.1987 193.309 17.7859 192.963 17.2676C192.617 16.7492 192.445 16.0773 192.445 15.2518C192.445 14.3687 192.646 13.6104 193.049 12.9769C193.472 12.3434 194.057 11.8539 194.806 11.5083C195.574 11.1628 196.486 10.99 197.542 10.99C198.655 10.99 199.634 11.1916 200.479 11.5947C201.343 11.9787 202.063 12.5642 202.639 13.3513L200.623 15.367C200.22 14.8679 199.759 14.4935 199.241 14.244C198.722 13.9944 198.127 13.8696 197.455 13.8696C196.822 13.8696 196.332 13.9656 195.987 14.1576C195.641 14.3496 195.468 14.6279 195.468 14.9927C195.468 15.3766 195.641 15.6742 195.987 15.8854C196.332 16.0965 196.774 16.2789 197.311 16.4325C197.868 16.5861 198.444 16.7588 199.039 16.9508C199.653 17.1236 200.229 17.3732 200.767 17.6995C201.324 18.0067 201.775 18.429 202.12 18.9666C202.466 19.4849 202.639 20.1664 202.639 21.0111C202.639 22.3549 202.168 23.4204 201.228 24.2075C200.287 24.9946 199.01 25.3881 197.398 25.3881Z" fill="white"/>
<g clip-path="url(#clip1_5003_206)">
<path d="M3.48908 3.70712V18.0516C2.34956 17.7765 1.18629 17.3784 0 16.8571V3.70712H3.48908Z" fill="#E0FE66"/>
<path d="M0 20.0365C1.17812 20.4873 2.34214 20.8313 3.48908 21.0678V25.9501H0V20.0365Z" fill="white"/>
<path d="M9.90803 7.41432V18.2563C9.82043 18.2741 9.73209 18.2911 9.64226 18.3067C8.59331 18.4928 7.51838 18.5551 6.41895 18.4928V7.41432H9.90803Z" fill="#E0FE66"/>
<path d="M7.22812 21.46C8.13305 21.46 9.02685 21.3888 9.90803 21.2457V29.6573H6.41895V21.4407C6.68991 21.4541 6.95938 21.46 7.22812 21.46Z" fill="white"/>
<path d="M16.5872 3.70712V15.0295C16.4417 15.1259 16.297 15.2216 16.1522 15.3179C15.1522 15.9823 14.182 16.628 13.0981 17.1634V3.70712H16.5872Z" fill="#E0FE66"/>
<path d="M13.0981 20.382C14.4121 19.8696 15.5331 19.2253 16.5872 18.5529V25.9501H13.0981V20.382Z" fill="white"/>
<path d="M23.2664 0V11.8814C23.2263 11.8911 23.1855 11.9007 23.1454 11.9111C21.8656 12.2366 20.7662 12.6644 19.7773 13.1478V0H23.2664Z" fill="#E0FE66"/>
<path d="M19.7773 16.4931C20.8166 15.8785 21.9272 15.3336 23.2664 14.931V22.2429H19.7773V16.4931Z" fill="white"/>
<path d="M29.6942 7.4514V11.4581C28.5064 11.3395 27.3416 11.3246 26.2051 11.4114V7.4514H29.6942Z" fill="#E0FE66"/>
<path d="M29.6942 14.4134V29.6943H26.2051V14.3593C27.3335 14.2548 28.4923 14.2718 29.6942 14.4134Z" fill="white"/>
</g>
<path d="M96.2171 38.0035C95.8587 38.0035 95.5334 37.9305 95.2414 37.7845C94.956 37.6318 94.727 37.4227 94.5544 37.1572C94.3818 36.8917 94.2856 36.5897 94.2657 36.2512V34.8275C94.2856 34.4823 94.3818 34.1803 94.5544 33.9214C94.7336 33.6559 94.9659 33.4502 95.2513 33.3041C95.5434 33.1515 95.8653 33.0751 96.2171 33.0751C96.6486 33.0751 97.0368 33.1847 97.382 33.4037C97.7338 33.6227 98.0093 33.9181 98.2084 34.2898C98.4075 34.6615 98.5071 35.0797 98.5071 35.5443C98.5071 36.0089 98.4075 36.4271 98.2084 36.7988C98.0093 37.1705 97.7338 37.4659 97.382 37.6849C97.0368 37.8973 96.6486 38.0035 96.2171 38.0035ZM93.728 39.8853V33.1747H94.6241V34.4192L94.4548 35.5642L94.6241 36.7192V39.8853H93.728ZM96.0678 37.1572C96.3665 37.1572 96.6286 37.0875 96.8543 36.9481C97.08 36.8088 97.2592 36.6196 97.392 36.3806C97.5247 36.135 97.5911 35.853 97.5911 35.5343C97.5911 35.2224 97.5247 34.9436 97.392 34.698C97.2592 34.4524 97.08 34.2633 96.8543 34.1305C96.6286 33.9911 96.3698 33.9214 96.0777 33.9214C95.779 33.9214 95.5168 33.9911 95.2912 34.1305C95.0655 34.2633 94.8896 34.4524 94.7635 34.698C94.6374 34.9436 94.5743 35.2257 94.5743 35.5443C94.5743 35.8563 94.6341 36.135 94.7535 36.3806C94.8796 36.6196 95.0555 36.8088 95.2812 36.9481C95.5135 37.0875 95.7757 37.1572 96.0678 37.1572Z" fill="#B4AEB4"/>
<path d="M101.683 38.0035C101.219 38.0035 100.801 37.894 100.429 37.675C100.057 37.4559 99.7619 37.1606 99.5428 36.7888C99.3238 36.4105 99.2143 35.989 99.2143 35.5244C99.2143 35.0664 99.3238 34.6549 99.5428 34.2898C99.7619 33.9181 100.057 33.6227 100.429 33.4037C100.801 33.1847 101.219 33.0751 101.683 33.0751C102.141 33.0751 102.556 33.1847 102.928 33.4037C103.306 33.6161 103.605 33.9081 103.824 34.2799C104.043 34.6516 104.153 35.0664 104.153 35.5244C104.153 35.989 104.043 36.4105 103.824 36.7888C103.605 37.1606 103.306 37.4559 102.928 37.675C102.556 37.894 102.141 38.0035 101.683 38.0035ZM101.683 37.1373C101.982 37.1373 102.248 37.0676 102.48 36.9282C102.712 36.7888 102.895 36.5997 103.028 36.3607C103.16 36.1151 103.227 35.8364 103.227 35.5244C103.227 35.2191 103.157 34.9469 103.018 34.708C102.885 34.469 102.702 34.2832 102.47 34.1504C102.244 34.011 101.982 33.9413 101.683 33.9413C101.385 33.9413 101.119 34.011 100.887 34.1504C100.655 34.2832 100.472 34.469 100.339 34.708C100.207 34.9469 100.14 35.2191 100.14 35.5244C100.14 35.8364 100.207 36.1151 100.339 36.3607C100.472 36.5997 100.655 36.7888 100.887 36.9282C101.119 37.0676 101.385 37.1373 101.683 37.1373Z" fill="#B4AEB4"/>
<path d="M106.38 37.904L104.508 33.1747H105.444L106.798 36.8585H106.5L107.844 33.1747H108.362L109.706 36.8585H109.407L110.761 33.1747H111.697L109.835 37.904H109.307L107.943 34.3296H108.272L106.898 37.904H106.38Z" fill="#B4AEB4"/>
<path d="M114.548 38.0035C114.076 38.0035 113.652 37.8973 113.273 37.6849C112.895 37.4659 112.596 37.1705 112.377 36.7988C112.158 36.4271 112.049 36.0056 112.049 35.5343C112.049 35.0697 112.155 34.6516 112.367 34.2799C112.586 33.9081 112.878 33.6161 113.243 33.4037C113.615 33.1847 114.03 33.0751 114.488 33.0751C114.926 33.0751 115.311 33.1747 115.643 33.3738C115.981 33.573 116.244 33.8484 116.429 34.2002C116.622 34.552 116.718 34.9502 116.718 35.395C116.718 35.4613 116.715 35.5344 116.708 35.614C116.702 35.687 116.688 35.7733 116.668 35.8729H112.676V35.1261H116.19L115.862 35.4149C115.862 35.0963 115.805 34.8275 115.693 34.6084C115.58 34.3827 115.42 34.2102 115.215 34.0907C115.009 33.9646 114.76 33.9015 114.468 33.9015C114.163 33.9015 113.894 33.9679 113.662 34.1006C113.429 34.2334 113.25 34.4192 113.124 34.6582C112.998 34.8971 112.935 35.1792 112.935 35.5045C112.935 35.8364 113.001 36.1284 113.134 36.3806C113.267 36.6262 113.456 36.8187 113.701 36.9581C113.947 37.0909 114.229 37.1572 114.548 37.1572C114.813 37.1572 115.055 37.1108 115.274 37.0178C115.5 36.9249 115.693 36.7855 115.852 36.5997L116.429 37.1871C116.204 37.4526 115.925 37.655 115.593 37.7944C115.268 37.9338 114.919 38.0035 114.548 38.0035Z" fill="#B4AEB4"/>
<path d="M117.695 37.904V33.1747H118.591V37.904H117.695ZM118.591 35.2058L118.253 35.0564C118.253 34.4524 118.392 33.9712 118.671 33.6128C118.95 33.2543 119.351 33.0751 119.876 33.0751C120.115 33.0751 120.33 33.1183 120.523 33.2046C120.715 33.2842 120.894 33.4203 121.06 33.6128L120.473 34.2201C120.373 34.1139 120.264 34.0376 120.144 33.9911C120.025 33.9447 119.886 33.9214 119.726 33.9214C119.394 33.9214 119.122 34.0276 118.91 34.24C118.697 34.4524 118.591 34.7743 118.591 35.2058Z" fill="#B4AEB4"/>
<path d="M123.726 38.0035C123.255 38.0035 122.83 37.8973 122.452 37.6849C122.073 37.4659 121.775 37.1705 121.556 36.7988C121.337 36.4271 121.227 36.0056 121.227 35.5343C121.227 35.0697 121.333 34.6516 121.546 34.2799C121.765 33.9081 122.057 33.6161 122.422 33.4037C122.794 33.1847 123.208 33.0751 123.666 33.0751C124.104 33.0751 124.489 33.1747 124.821 33.3738C125.16 33.573 125.422 33.8484 125.608 34.2002C125.8 34.552 125.897 34.9502 125.897 35.395C125.897 35.4613 125.893 35.5344 125.887 35.614C125.88 35.687 125.867 35.7733 125.847 35.8729H121.854V35.1261H125.369L125.04 35.4149C125.04 35.0963 124.984 34.8275 124.871 34.6084C124.758 34.3827 124.599 34.2102 124.393 34.0907C124.187 33.9646 123.939 33.9015 123.646 33.9015C123.341 33.9015 123.072 33.9679 122.84 34.1006C122.608 34.2334 122.429 34.4192 122.302 34.6582C122.176 34.8971 122.113 35.1792 122.113 35.5045C122.113 35.8364 122.18 36.1284 122.312 36.3806C122.445 36.6262 122.634 36.8187 122.88 36.9581C123.125 37.0909 123.408 37.1572 123.726 37.1572C123.992 37.1572 124.234 37.1108 124.453 37.0178C124.679 36.9249 124.871 36.7855 125.03 36.5997L125.608 37.1871C125.382 37.4526 125.103 37.655 124.772 37.7944C124.446 37.9338 124.098 38.0035 123.726 38.0035Z" fill="#B4AEB4"/>
<path d="M128.875 38.0035C128.437 38.0035 128.045 37.8973 127.7 37.6849C127.355 37.4659 127.079 37.1705 126.874 36.7988C126.675 36.4271 126.575 36.0089 126.575 35.5443C126.575 35.0797 126.675 34.6615 126.874 34.2898C127.079 33.9181 127.355 33.6227 127.7 33.4037C128.045 33.1847 128.437 33.0751 128.875 33.0751C129.227 33.0751 129.545 33.1515 129.831 33.3041C130.116 33.4502 130.345 33.6559 130.518 33.9214C130.697 34.1803 130.796 34.4823 130.816 34.8275V36.2512C130.796 36.5897 130.7 36.8917 130.528 37.1572C130.355 37.4227 130.126 37.6318 129.841 37.7845C129.555 37.9305 129.233 38.0035 128.875 38.0035ZM129.024 37.1572C129.323 37.1572 129.582 37.0875 129.801 36.9481C130.027 36.8088 130.202 36.6196 130.329 36.3806C130.455 36.135 130.518 35.8563 130.518 35.5443C130.518 35.2191 130.451 34.937 130.319 34.698C130.192 34.4591 130.017 34.2699 129.791 34.1305C129.572 33.9911 129.313 33.9214 129.014 33.9214C128.716 33.9214 128.453 33.9911 128.228 34.1305C128.002 34.2699 127.823 34.4624 127.69 34.708C127.564 34.9469 127.501 35.2224 127.501 35.5343C127.501 35.853 127.564 36.135 127.69 36.3806C127.823 36.6196 128.002 36.8088 128.228 36.9481C128.46 37.0875 128.726 37.1572 129.024 37.1572ZM131.364 37.904H130.458V36.6295L130.627 35.4746L130.458 34.3296V30.7951H131.364V37.904Z" fill="#B4AEB4"/>
<path d="M137.229 38.0035C136.87 38.0035 136.545 37.9305 136.253 37.7845C135.968 37.6318 135.739 37.4227 135.566 37.1572C135.393 36.8917 135.297 36.5897 135.277 36.2512V34.8275C135.297 34.4823 135.393 34.1803 135.566 33.9214C135.745 33.6559 135.977 33.4502 136.263 33.3041C136.555 33.1515 136.877 33.0751 137.229 33.0751C137.66 33.0751 138.048 33.1847 138.394 33.4037C138.745 33.6227 139.021 33.9181 139.22 34.2898C139.419 34.6615 139.519 35.0797 139.519 35.5443C139.519 36.0089 139.419 36.4271 139.22 36.7988C139.021 37.1705 138.745 37.4659 138.394 37.6849C138.048 37.8973 137.66 38.0035 137.229 38.0035ZM134.74 37.904V30.7951H135.636V34.3296L135.466 35.4746L135.636 36.6295V37.904H134.74ZM137.079 37.1572C137.378 37.1572 137.64 37.0875 137.866 36.9481C138.092 36.8088 138.271 36.6196 138.403 36.3806C138.536 36.135 138.603 35.853 138.603 35.5343C138.603 35.2224 138.536 34.9436 138.403 34.698C138.271 34.4524 138.092 34.2633 137.866 34.1305C137.64 33.9911 137.381 33.9214 137.089 33.9214C136.791 33.9214 136.528 33.9911 136.303 34.1305C136.077 34.2633 135.901 34.4524 135.775 34.698C135.649 34.9436 135.586 35.2257 135.586 35.5443C135.586 35.8563 135.646 36.135 135.765 36.3806C135.891 36.6196 136.067 36.8088 136.293 36.9481C136.525 37.0875 136.787 37.1572 137.079 37.1572Z" fill="#B4AEB4"/>
<path d="M141.903 37.9438L139.852 33.1747H140.848L142.371 36.9083H142.052L143.655 33.1747H144.651L142.441 37.9438H141.903ZM140.549 39.8853L141.943 37.0278L142.441 37.9438L141.544 39.8853H140.549Z" fill="#B4AEB4"/>
<path d="M149.371 37.904V31.1934H150.307V37.904H149.371ZM147.021 31.8505V30.9943H152.646V31.8505H147.021Z" fill="#B4AEB4"/>
<path d="M152.242 37.904L155.07 30.9943H155.747L158.565 37.904H157.549L155.229 32.0596H155.578L153.238 37.904H152.242ZM153.587 36.3408V35.5244H157.221V36.3408H153.587Z" fill="#B4AEB4"/>
<path d="M160.232 35.2157V34.3993H162.114C162.373 34.3993 162.602 34.3462 162.801 34.24C163.007 34.1338 163.166 33.9845 163.279 33.792C163.398 33.5995 163.458 33.3705 163.458 33.105C163.458 32.8395 163.398 32.6105 163.279 32.418C163.166 32.2255 163.007 32.0762 162.801 31.97C162.602 31.8638 162.373 31.8107 162.114 31.8107H160.232V30.9943H162.174C162.598 30.9943 162.977 31.0806 163.309 31.2531C163.647 31.4257 163.913 31.6713 164.105 31.9899C164.304 32.3019 164.404 32.6736 164.404 33.105C164.404 33.5298 164.304 33.9015 164.105 34.2201C163.913 34.5321 163.647 34.7777 163.309 34.9569C162.977 35.1295 162.598 35.2157 162.174 35.2157H160.232ZM159.605 37.904V30.9943H160.541V37.904H159.605Z" fill="#B4AEB4"/>
<path d="M166.192 35.2157V34.3993H168.074C168.333 34.3993 168.562 34.3462 168.761 34.24C168.967 34.1338 169.126 33.9845 169.239 33.792C169.359 33.5995 169.418 33.3705 169.418 33.105C169.418 32.8395 169.359 32.6105 169.239 32.418C169.126 32.2255 168.967 32.0762 168.761 31.97C168.562 31.8638 168.333 31.8107 168.074 31.8107H166.192V30.9943H168.134C168.559 30.9943 168.937 31.0806 169.269 31.2531C169.607 31.4257 169.873 31.6713 170.065 31.9899C170.265 32.3019 170.364 32.6736 170.364 33.105C170.364 33.5298 170.265 33.9015 170.065 34.2201C169.873 34.5321 169.607 34.7777 169.269 34.9569C168.937 35.1295 168.559 35.2157 168.134 35.2157H166.192ZM165.565 37.904V30.9943H166.501V37.904H165.565Z" fill="#B4AEB4"/>
<path d="M173.499 37.904V30.9943H174.435V37.904H173.499ZM174.136 37.904V37.0477H178.099V37.904H174.136ZM174.136 34.7777V33.9612H177.77V34.7777H174.136ZM174.136 31.8505V30.9943H178.049V31.8505H174.136Z" fill="#B4AEB4"/>
<path d="M182.558 37.904V35.1461C182.558 34.7876 182.445 34.4923 182.219 34.2599C181.994 34.0276 181.702 33.9115 181.343 33.9115C181.104 33.9115 180.892 33.9646 180.706 34.0708C180.52 34.177 180.374 34.323 180.268 34.5088C180.162 34.6947 180.109 34.9071 180.109 35.1461L179.74 34.937C179.74 34.5785 179.82 34.2599 179.979 33.9812C180.138 33.7024 180.361 33.4833 180.646 33.324C180.932 33.1581 181.254 33.0751 181.612 33.0751C181.97 33.0751 182.286 33.1647 182.558 33.344C182.837 33.5232 183.056 33.7588 183.215 34.0509C183.374 34.3363 183.454 34.6416 183.454 34.9668V37.904H182.558ZM179.212 37.904V33.1747H180.109V37.904H179.212Z" fill="#B4AEB4"/>
<path d="M186.628 39.9848C186.144 39.9848 185.712 39.8952 185.334 39.716C184.962 39.5368 184.664 39.2846 184.438 38.9593L185.016 38.3719C185.208 38.6175 185.437 38.8033 185.703 38.9295C185.968 39.0622 186.283 39.1286 186.648 39.1286C187.133 39.1286 187.515 38.9992 187.793 38.7403C188.079 38.4881 188.221 38.1462 188.221 37.7148V36.5399L188.381 35.4746L188.221 34.4192V33.1747H189.118V37.7148C189.118 38.1661 189.011 38.5611 188.799 38.8996C188.593 39.2381 188.301 39.5036 187.923 39.6961C187.551 39.8886 187.12 39.9848 186.628 39.9848ZM186.628 37.8243C186.197 37.8243 185.809 37.7214 185.464 37.5157C185.125 37.3099 184.856 37.0278 184.657 36.6694C184.458 36.3043 184.358 35.8961 184.358 35.4447C184.358 34.9934 184.458 34.5918 184.657 34.24C184.856 33.8816 185.125 33.5995 185.464 33.3937C185.809 33.1813 186.197 33.0751 186.628 33.0751C187 33.0751 187.329 33.1481 187.614 33.2942C187.9 33.4402 188.125 33.646 188.291 33.9115C188.464 34.1703 188.557 34.4757 188.57 34.8275V36.0819C188.55 36.4271 188.454 36.7324 188.281 36.9979C188.115 37.2568 187.89 37.4592 187.604 37.6053C187.319 37.7513 186.994 37.8243 186.628 37.8243ZM186.808 36.978C187.1 36.978 187.355 36.915 187.574 36.7888C187.8 36.6627 187.973 36.4868 188.092 36.2612C188.212 36.0288 188.271 35.76 188.271 35.4547C188.271 35.1494 188.208 34.8839 188.082 34.6582C187.963 34.4259 187.793 34.2467 187.574 34.1206C187.355 33.9878 187.096 33.9214 186.798 33.9214C186.499 33.9214 186.237 33.9878 186.011 34.1206C185.785 34.2467 185.606 34.4259 185.474 34.6582C185.347 34.8839 185.284 35.1461 185.284 35.4447C185.284 35.7434 185.347 36.0089 185.474 36.2413C185.606 36.4736 185.785 36.6561 186.011 36.7888C186.243 36.915 186.509 36.978 186.808 36.978Z" fill="#B4AEB4"/>
<path d="M190.443 37.904V33.1747H191.339V37.904H190.443ZM190.891 32.2288C190.725 32.2288 190.589 32.1757 190.483 32.0695C190.376 31.9567 190.323 31.8173 190.323 31.6514C190.323 31.4921 190.376 31.3593 190.483 31.2531C190.589 31.1403 190.725 31.0839 190.891 31.0839C191.057 31.0839 191.193 31.1403 191.299 31.2531C191.405 31.3593 191.458 31.4921 191.458 31.6514C191.458 31.8173 191.405 31.9567 191.299 32.0695C191.193 32.1757 191.057 32.2288 190.891 32.2288Z" fill="#B4AEB4"/>
<path d="M196.005 37.904V35.1461C196.005 34.7876 195.892 34.4923 195.666 34.2599C195.44 34.0276 195.148 33.9115 194.79 33.9115C194.551 33.9115 194.339 33.9646 194.153 34.0708C193.967 34.177 193.821 34.323 193.715 34.5088C193.609 34.6947 193.555 34.9071 193.555 35.1461L193.187 34.937C193.187 34.5785 193.267 34.2599 193.426 33.9812C193.585 33.7024 193.808 33.4833 194.093 33.324C194.378 33.1581 194.7 33.0751 195.059 33.0751C195.417 33.0751 195.733 33.1647 196.005 33.344C196.283 33.5232 196.503 33.7588 196.662 34.0509C196.821 34.3363 196.901 34.6416 196.901 34.9668V37.904H196.005ZM192.659 37.904V33.1747H193.555V37.904H192.659Z" fill="#B4AEB4"/>
<path d="M200.304 38.0035C199.833 38.0035 199.408 37.8973 199.03 37.6849C198.652 37.4659 198.353 37.1705 198.134 36.7988C197.915 36.4271 197.805 36.0056 197.805 35.5343C197.805 35.0697 197.912 34.6516 198.124 34.2799C198.343 33.9081 198.635 33.6161 199 33.4037C199.372 33.1847 199.787 33.0751 200.245 33.0751C200.683 33.0751 201.068 33.1747 201.4 33.3738C201.738 33.573 202 33.8484 202.186 34.2002C202.379 34.552 202.475 34.9502 202.475 35.395C202.475 35.4613 202.472 35.5344 202.465 35.614C202.458 35.687 202.445 35.7733 202.425 35.8729H198.433V35.1261H201.947L201.619 35.4149C201.619 35.0963 201.562 34.8275 201.449 34.6084C201.336 34.3827 201.177 34.2102 200.971 34.0907C200.766 33.9646 200.517 33.9015 200.225 33.9015C199.919 33.9015 199.651 33.9679 199.418 34.1006C199.186 34.2334 199.007 34.4192 198.881 34.6582C198.754 34.8971 198.691 35.1792 198.691 35.5045C198.691 35.8364 198.758 36.1284 198.891 36.3806C199.023 36.6262 199.212 36.8187 199.458 36.9581C199.704 37.0909 199.986 37.1572 200.304 37.1572C200.57 37.1572 200.812 37.1108 201.031 37.0178C201.257 36.9249 201.449 36.7855 201.609 36.5997L202.186 37.1871C201.96 37.4526 201.682 37.655 201.35 37.7944C201.025 37.9338 200.676 38.0035 200.304 38.0035Z" fill="#B4AEB4"/>
</g>
<defs>
<clipPath id="clip0_5003_206">
<rect width="203" height="40" fill="white"/>
</clipPath>
<clipPath id="clip1_5003_206">
<rect width="29.6943" height="29.6943" fill="white"/>
</clipPath>
</defs>
</svg>
